<mxfile host="Electron" modified="2024-07-25T09:49:24.910Z" agent="Mozilla/5.0 (Windows NT 10.0; Win64; x64) AppleWebKit/537.36 (KHTML, like Gecko) draw.io/23.1.5 Chrome/120.0.6099.109 Electron/28.1.0 Safari/537.36" etag="NHh4RMGXV2p5nY9UyUu6" version="23.1.5" type="device">
  <diagram name="Page-1" id="-H_mtQnk-PTXWXPvYvuk">
    <mxGraphModel dx="2662" dy="1699" grid="1" gridSize="10" guides="1" tooltips="1" connect="1" arrows="1" fold="1" page="1" pageScale="1" pageWidth="1169" pageHeight="827" math="0" shadow="0">
      <root>
        <mxCell id="0" />
        <mxCell id="1" parent="0" />
        <mxCell id="Icxdzn66Q8KbmpTiYQE2-18" value="" style="rounded=0;whiteSpace=wrap;html=1;fillColor=none;gradientColor=none;fillStyle=auto;" parent="1" vertex="1">
          <mxGeometry x="120" y="-110" width="840" height="1020" as="geometry" />
        </mxCell>
        <mxCell id="q_DHem_hsuBPCSf2_Ff1-10" style="edgeStyle=orthogonalEdgeStyle;rounded=0;orthogonalLoop=1;jettySize=auto;html=1;entryX=0.5;entryY=1;entryDx=0;entryDy=0;exitX=1;exitY=0.5;exitDx=0;exitDy=0;" edge="1" parent="1" source="q_DHem_hsuBPCSf2_Ff1-4" target="vVhtApy1v7BNJTEuhsdp-13">
          <mxGeometry relative="1" as="geometry" />
        </mxCell>
        <mxCell id="q_DHem_hsuBPCSf2_Ff1-4" value="" style="rounded=0;whiteSpace=wrap;html=1;" vertex="1" parent="1">
          <mxGeometry x="290" y="686" width="510" height="214" as="geometry" />
        </mxCell>
        <mxCell id="DcA6ONEmHC0lPnLbVvcL-2" value="CDN" style="rounded=1;whiteSpace=wrap;html=1;fillColor=#dae8fc;gradientColor=#7ea6e0;strokeColor=#6c8ebf;" parent="1" vertex="1">
          <mxGeometry x="1000" y="60" width="120" height="60" as="geometry" />
        </mxCell>
        <mxCell id="DcA6ONEmHC0lPnLbVvcL-1" value="CDN" style="rounded=1;whiteSpace=wrap;html=1;fillColor=#dae8fc;gradientColor=#7ea6e0;strokeColor=#6c8ebf;" parent="1" vertex="1">
          <mxGeometry x="990" y="70" width="120" height="60" as="geometry" />
        </mxCell>
        <mxCell id="Icxdzn66Q8KbmpTiYQE2-61" value="" style="rounded=0;whiteSpace=wrap;html=1;dashed=1;dashPattern=12 12;fillColor=none;" parent="1" vertex="1">
          <mxGeometry x="320" y="-70" width="460" height="100" as="geometry" />
        </mxCell>
        <mxCell id="fIzVglhIChdaKr7v5SgU-8" value="pymongo-api" style="rounded=1;whiteSpace=wrap;html=1;fillColor=#d5e8d4;strokeColor=#82b366;gradientColor=#97d077;" parent="1" vertex="1">
          <mxGeometry x="500" y="220" width="120" height="60" as="geometry" />
        </mxCell>
        <mxCell id="fIzVglhIChdaKr7v5SgU-6" value="pymongo-api" style="rounded=1;whiteSpace=wrap;html=1;fillColor=#d5e8d4;strokeColor=#82b366;gradientColor=#97d077;" parent="1" vertex="1">
          <mxGeometry x="490" y="230" width="120" height="60" as="geometry" />
        </mxCell>
        <mxCell id="vVhtApy1v7BNJTEuhsdp-12" value="" style="rounded=0;whiteSpace=wrap;html=1;" parent="1" vertex="1">
          <mxGeometry x="760" y="480" width="160" height="150" as="geometry" />
        </mxCell>
        <mxCell id="vVhtApy1v7BNJTEuhsdp-9" value="mongos" style="rounded=1;whiteSpace=wrap;html=1;" parent="1" vertex="1">
          <mxGeometry x="500" y="490" width="120" height="60" as="geometry" />
        </mxCell>
        <mxCell id="vVhtApy1v7BNJTEuhsdp-7" value="mongos" style="rounded=1;whiteSpace=wrap;html=1;" parent="1" vertex="1">
          <mxGeometry x="490" y="500" width="120" height="60" as="geometry" />
        </mxCell>
        <mxCell id="Icxdzn66Q8KbmpTiYQE2-6" value="" style="rounded=0;whiteSpace=wrap;html=1;fillColor=#fff2cc;strokeColor=#d6b656;" parent="1" vertex="1">
          <mxGeometry x="320" y="716" width="160" height="166" as="geometry" />
        </mxCell>
        <mxCell id="Icxdzn66Q8KbmpTiYQE2-2" value="secondary" style="shape=cylinder3;whiteSpace=wrap;html=1;boundedLbl=1;backgroundOutline=1;size=15;" parent="1" vertex="1">
          <mxGeometry x="410" y="762" width="60" height="80" as="geometry" />
        </mxCell>
        <mxCell id="Icxdzn66Q8KbmpTiYQE2-3" value="secondary" style="shape=cylinder3;whiteSpace=wrap;html=1;boundedLbl=1;backgroundOutline=1;size=15;" parent="1" vertex="1">
          <mxGeometry x="330" y="762" width="60" height="80" as="geometry" />
        </mxCell>
        <mxCell id="zA23MoTUsTF4_91t8viU-2" value="primary" style="shape=cylinder3;whiteSpace=wrap;html=1;boundedLbl=1;backgroundOutline=1;size=15;" parent="1" vertex="1">
          <mxGeometry x="370" y="732" width="60" height="80" as="geometry" />
        </mxCell>
        <mxCell id="Icxdzn66Q8KbmpTiYQE2-7" value="MongoDB shard 0" style="text;html=1;align=center;verticalAlign=middle;whiteSpace=wrap;rounded=0;" parent="1" vertex="1">
          <mxGeometry x="370" y="852" width="60" height="30" as="geometry" />
        </mxCell>
        <mxCell id="Icxdzn66Q8KbmpTiYQE2-8" value="" style="rounded=0;whiteSpace=wrap;html=1;fillColor=#fff2cc;strokeColor=#d6b656;" parent="1" vertex="1">
          <mxGeometry x="600" y="716" width="160" height="166" as="geometry" />
        </mxCell>
        <mxCell id="Icxdzn66Q8KbmpTiYQE2-85" style="edgeStyle=orthogonalEdgeStyle;rounded=0;orthogonalLoop=1;jettySize=auto;html=1;entryX=1;entryY=0.5;entryDx=0;entryDy=0;strokeColor=#000000;jumpStyle=gap;" parent="1" source="Icxdzn66Q8KbmpTiYQE2-9" target="vVhtApy1v7BNJTEuhsdp-1" edge="1">
          <mxGeometry relative="1" as="geometry">
            <Array as="points">
              <mxPoint x="680" y="270" />
              <mxPoint x="680" y="540" />
            </Array>
          </mxGeometry>
        </mxCell>
        <mxCell id="fIzVglhIChdaKr7v5SgU-11" style="edgeStyle=orthogonalEdgeStyle;rounded=0;orthogonalLoop=1;jettySize=auto;html=1;entryX=0.5;entryY=1;entryDx=0;entryDy=0;" parent="1" source="Icxdzn66Q8KbmpTiYQE2-9" target="Icxdzn66Q8KbmpTiYQE2-15" edge="1">
          <mxGeometry relative="1" as="geometry">
            <Array as="points">
              <mxPoint x="243" y="270" />
            </Array>
          </mxGeometry>
        </mxCell>
        <mxCell id="fIzVglhIChdaKr7v5SgU-17" style="edgeStyle=orthogonalEdgeStyle;rounded=0;orthogonalLoop=1;jettySize=auto;html=1;entryX=1;entryY=0.5;entryDx=0;entryDy=0;strokeColor=#E85454;" parent="1" source="Icxdzn66Q8KbmpTiYQE2-9" edge="1">
          <mxGeometry relative="1" as="geometry">
            <Array as="points">
              <mxPoint x="540" y="430" />
            </Array>
            <mxPoint x="330" y="430" as="targetPoint" />
          </mxGeometry>
        </mxCell>
        <mxCell id="Icxdzn66Q8KbmpTiYQE2-9" value="pymongo-api" style="rounded=1;whiteSpace=wrap;html=1;fillColor=#d5e8d4;strokeColor=#82b366;gradientColor=#97d077;" parent="1" vertex="1">
          <mxGeometry x="480" y="240" width="120" height="60" as="geometry" />
        </mxCell>
        <mxCell id="Icxdzn66Q8KbmpTiYQE2-10" value="secondary" style="shape=cylinder3;whiteSpace=wrap;html=1;boundedLbl=1;backgroundOutline=1;size=15;" parent="1" vertex="1">
          <mxGeometry x="690" y="762" width="60" height="80" as="geometry" />
        </mxCell>
        <mxCell id="Icxdzn66Q8KbmpTiYQE2-11" value="secondary" style="shape=cylinder3;whiteSpace=wrap;html=1;boundedLbl=1;backgroundOutline=1;size=15;" parent="1" vertex="1">
          <mxGeometry x="610" y="762" width="60" height="80" as="geometry" />
        </mxCell>
        <mxCell id="Icxdzn66Q8KbmpTiYQE2-12" value="primary" style="shape=cylinder3;whiteSpace=wrap;html=1;boundedLbl=1;backgroundOutline=1;size=15;" parent="1" vertex="1">
          <mxGeometry x="650" y="732" width="60" height="80" as="geometry" />
        </mxCell>
        <mxCell id="Icxdzn66Q8KbmpTiYQE2-14" value="MongoDB shard 1" style="text;html=1;align=center;verticalAlign=middle;whiteSpace=wrap;rounded=0;" parent="1" vertex="1">
          <mxGeometry x="650" y="852" width="60" height="30" as="geometry" />
        </mxCell>
        <mxCell id="Icxdzn66Q8KbmpTiYQE2-66" style="edgeStyle=orthogonalEdgeStyle;rounded=0;orthogonalLoop=1;jettySize=auto;html=1;entryX=0.5;entryY=1;entryDx=0;entryDy=0;" parent="1" source="Icxdzn66Q8KbmpTiYQE2-15" target="Icxdzn66Q8KbmpTiYQE2-54" edge="1">
          <mxGeometry relative="1" as="geometry" />
        </mxCell>
        <mxCell id="Icxdzn66Q8KbmpTiYQE2-15" value="Consul config" style="rounded=1;whiteSpace=wrap;html=1;fillColor=#e6d0de;strokeColor=#996185;gradientColor=#d5739d;" parent="1" vertex="1">
          <mxGeometry x="155" y="190" width="175" height="60" as="geometry" />
        </mxCell>
        <mxCell id="Icxdzn66Q8KbmpTiYQE2-20" value="&amp;nbsp;Hash sharding" style="text;html=1;align=center;verticalAlign=middle;whiteSpace=wrap;rounded=0;" parent="1" vertex="1">
          <mxGeometry x="510" y="787" width="60" height="30" as="geometry" />
        </mxCell>
        <mxCell id="Icxdzn66Q8KbmpTiYQE2-22" style="edgeStyle=orthogonalEdgeStyle;rounded=0;orthogonalLoop=1;jettySize=auto;html=1;entryX=0.001;entryY=0.518;entryDx=0;entryDy=0;entryPerimeter=0;" parent="1" source="Icxdzn66Q8KbmpTiYQE2-20" target="Icxdzn66Q8KbmpTiYQE2-8" edge="1">
          <mxGeometry relative="1" as="geometry" />
        </mxCell>
        <mxCell id="Icxdzn66Q8KbmpTiYQE2-24" style="edgeStyle=orthogonalEdgeStyle;rounded=0;orthogonalLoop=1;jettySize=auto;html=1;entryX=0.997;entryY=0.521;entryDx=0;entryDy=0;entryPerimeter=0;" parent="1" source="Icxdzn66Q8KbmpTiYQE2-20" target="Icxdzn66Q8KbmpTiYQE2-6" edge="1">
          <mxGeometry relative="1" as="geometry" />
        </mxCell>
        <mxCell id="Icxdzn66Q8KbmpTiYQE2-27" value="redis" style="shape=cylinder3;whiteSpace=wrap;html=1;boundedLbl=1;backgroundOutline=1;size=15;fillColor=#a20025;strokeColor=#6F0000;fontColor=#ffffff;" parent="1" vertex="1">
          <mxGeometry x="270" y="400" width="50" height="70" as="geometry" />
        </mxCell>
        <mxCell id="Icxdzn66Q8KbmpTiYQE2-55" style="edgeStyle=orthogonalEdgeStyle;rounded=0;orthogonalLoop=1;jettySize=auto;html=1;" parent="1" source="Icxdzn66Q8KbmpTiYQE2-43" target="Icxdzn66Q8KbmpTiYQE2-54" edge="1">
          <mxGeometry relative="1" as="geometry" />
        </mxCell>
        <mxCell id="fIzVglhIChdaKr7v5SgU-9" style="edgeStyle=orthogonalEdgeStyle;rounded=0;orthogonalLoop=1;jettySize=auto;html=1;" parent="1" source="Icxdzn66Q8KbmpTiYQE2-43" target="Icxdzn66Q8KbmpTiYQE2-9" edge="1">
          <mxGeometry relative="1" as="geometry" />
        </mxCell>
        <mxCell id="Icxdzn66Q8KbmpTiYQE2-43" value="api gateway" style="rounded=1;whiteSpace=wrap;html=1;fillColor=#d5e8d4;strokeColor=#82b366;gradientColor=#97d077;" parent="1" vertex="1">
          <mxGeometry x="340" y="100" width="400" height="60" as="geometry" />
        </mxCell>
        <mxCell id="Icxdzn66Q8KbmpTiYQE2-50" style="edgeStyle=orthogonalEdgeStyle;rounded=0;orthogonalLoop=1;jettySize=auto;html=1;dashed=1;dashPattern=8 8;strokeColor=#D27FD4;" parent="1" source="Icxdzn66Q8KbmpTiYQE2-48" target="Icxdzn66Q8KbmpTiYQE2-49" edge="1">
          <mxGeometry relative="1" as="geometry" />
        </mxCell>
        <mxCell id="Icxdzn66Q8KbmpTiYQE2-51" style="edgeStyle=orthogonalEdgeStyle;rounded=0;orthogonalLoop=1;jettySize=auto;html=1;" parent="1" source="Icxdzn66Q8KbmpTiYQE2-48" target="Icxdzn66Q8KbmpTiYQE2-43" edge="1">
          <mxGeometry relative="1" as="geometry" />
        </mxCell>
        <mxCell id="Icxdzn66Q8KbmpTiYQE2-48" value="client (React/Angular/Vue)" style="rounded=1;whiteSpace=wrap;html=1;fillColor=#d5e8d4;gradientColor=#97d077;strokeColor=#82b366;" parent="1" vertex="1">
          <mxGeometry x="340" y="-40" width="400" height="60" as="geometry" />
        </mxCell>
        <mxCell id="Icxdzn66Q8KbmpTiYQE2-49" value="CDN" style="rounded=1;whiteSpace=wrap;html=1;fillColor=#dae8fc;gradientColor=#7ea6e0;strokeColor=#6c8ebf;" parent="1" vertex="1">
          <mxGeometry x="980" y="80" width="120" height="60" as="geometry" />
        </mxCell>
        <mxCell id="Icxdzn66Q8KbmpTiYQE2-54" value="consul_cv" style="rounded=1;whiteSpace=wrap;html=1;fillColor=#e6d0de;gradientColor=#d5739d;strokeColor=#996185;" parent="1" vertex="1">
          <mxGeometry x="207.5" y="100" width="70" height="60" as="geometry" />
        </mxCell>
        <mxCell id="Icxdzn66Q8KbmpTiYQE2-58" value="ЦОД 1" style="text;html=1;align=center;verticalAlign=middle;whiteSpace=wrap;rounded=0;" parent="1" vertex="1">
          <mxGeometry x="370" y="686" width="60" height="30" as="geometry" />
        </mxCell>
        <mxCell id="Icxdzn66Q8KbmpTiYQE2-59" value="ЦОД 2" style="text;html=1;align=center;verticalAlign=middle;whiteSpace=wrap;rounded=0;" parent="1" vertex="1">
          <mxGeometry x="650" y="686" width="60" height="30" as="geometry" />
        </mxCell>
        <mxCell id="Icxdzn66Q8KbmpTiYQE2-62" value="NGINX" style="text;html=1;align=center;verticalAlign=middle;whiteSpace=wrap;rounded=0;" parent="1" vertex="1">
          <mxGeometry x="320" y="-70" width="60" height="30" as="geometry" />
        </mxCell>
        <mxCell id="Icxdzn66Q8KbmpTiYQE2-64" style="edgeStyle=orthogonalEdgeStyle;rounded=0;orthogonalLoop=1;jettySize=auto;html=1;entryX=0.5;entryY=0;entryDx=0;entryDy=0;fillColor=#f5f5f5;gradientColor=#b3b3b3;strokeColor=#666666;dashed=1;dashPattern=8 8;" parent="1" source="Icxdzn66Q8KbmpTiYQE2-63" target="Icxdzn66Q8KbmpTiYQE2-18" edge="1">
          <mxGeometry relative="1" as="geometry" />
        </mxCell>
        <mxCell id="Icxdzn66Q8KbmpTiYQE2-63" value="" style="shape=umlActor;verticalLabelPosition=bottom;verticalAlign=top;html=1;outlineConnect=0;" parent="1" vertex="1">
          <mxGeometry x="525" y="-219" width="30" height="60" as="geometry" />
        </mxCell>
        <mxCell id="Icxdzn66Q8KbmpTiYQE2-67" value="Пользователь" style="text;html=1;align=center;verticalAlign=middle;whiteSpace=wrap;rounded=0;" parent="1" vertex="1">
          <mxGeometry x="510" y="-249" width="60" height="30" as="geometry" />
        </mxCell>
        <mxCell id="Icxdzn66Q8KbmpTiYQE2-77" value="" style="rounded=0;whiteSpace=wrap;html=1;" parent="1" vertex="1">
          <mxGeometry x="-260" y="-90" width="345" height="230" as="geometry" />
        </mxCell>
        <mxCell id="Icxdzn66Q8KbmpTiYQE2-78" style="edgeStyle=orthogonalEdgeStyle;rounded=0;orthogonalLoop=1;jettySize=auto;html=1;dashed=1;dashPattern=8 8;strokeColor=#D27FD4;" parent="1" edge="1">
          <mxGeometry relative="1" as="geometry">
            <mxPoint x="-236.5" y="-54" as="sourcePoint" />
            <mxPoint x="-44" y="-54" as="targetPoint" />
          </mxGeometry>
        </mxCell>
        <mxCell id="Icxdzn66Q8KbmpTiYQE2-95" value="&amp;nbsp; &amp;nbsp; Вызов CDN" style="edgeLabel;html=1;align=center;verticalAlign=middle;resizable=0;points=[];" parent="Icxdzn66Q8KbmpTiYQE2-78" vertex="1" connectable="0">
          <mxGeometry x="0.6166" y="-3" relative="1" as="geometry">
            <mxPoint x="87" y="-2" as="offset" />
          </mxGeometry>
        </mxCell>
        <mxCell id="Icxdzn66Q8KbmpTiYQE2-81" style="edgeStyle=orthogonalEdgeStyle;rounded=0;orthogonalLoop=1;jettySize=auto;html=1;strokeColor=#000000;" parent="1" edge="1">
          <mxGeometry relative="1" as="geometry">
            <mxPoint x="-237" y="-20" as="sourcePoint" />
            <mxPoint x="-46.5" y="-20" as="targetPoint" />
          </mxGeometry>
        </mxCell>
        <mxCell id="Icxdzn66Q8KbmpTiYQE2-83" style="edgeStyle=orthogonalEdgeStyle;rounded=0;orthogonalLoop=1;jettySize=auto;html=1;strokeColor=#907a7a;" parent="1" edge="1">
          <mxGeometry relative="1" as="geometry">
            <mxPoint x="-236.5" y="20" as="sourcePoint" />
            <mxPoint x="-46" y="20" as="targetPoint" />
          </mxGeometry>
        </mxCell>
        <mxCell id="Icxdzn66Q8KbmpTiYQE2-96" value="&amp;nbsp; &amp;nbsp;Вызов сервиса" style="edgeLabel;html=1;align=center;verticalAlign=middle;resizable=0;points=[];" parent="1" vertex="1" connectable="0">
          <mxGeometry x="16.003333333333273" y="-20" as="geometry" />
        </mxCell>
        <mxCell id="Icxdzn66Q8KbmpTiYQE2-97" value="Вызов БД" style="edgeLabel;html=1;align=center;verticalAlign=middle;resizable=0;points=[];" parent="1" vertex="1" connectable="0">
          <mxGeometry x="6.0033333333332735" y="20" as="geometry" />
        </mxCell>
        <mxCell id="Icxdzn66Q8KbmpTiYQE2-100" style="edgeStyle=orthogonalEdgeStyle;rounded=0;orthogonalLoop=1;jettySize=auto;html=1;strokeColor=#E85454;" parent="1" edge="1">
          <mxGeometry relative="1" as="geometry">
            <mxPoint x="-236.75" y="60" as="sourcePoint" />
            <mxPoint x="-46.25" y="60" as="targetPoint" />
          </mxGeometry>
        </mxCell>
        <mxCell id="Icxdzn66Q8KbmpTiYQE2-101" value="&amp;nbsp; &amp;nbsp; Вызов кеша" style="edgeLabel;html=1;align=center;verticalAlign=middle;resizable=0;points=[];" parent="1" vertex="1" connectable="0">
          <mxGeometry x="6.00411764705899" y="59.999999999999545" as="geometry" />
        </mxCell>
        <mxCell id="Icxdzn66Q8KbmpTiYQE2-104" value="&amp;nbsp; &amp;nbsp; Внешний вызов" style="edgeLabel;html=1;align=center;verticalAlign=middle;resizable=0;points=[];" parent="1" vertex="1" connectable="0">
          <mxGeometry x="6.00411764705899" y="99.99999999999955" as="geometry">
            <mxPoint x="10" as="offset" />
          </mxGeometry>
        </mxCell>
        <mxCell id="Icxdzn66Q8KbmpTiYQE2-105" style="edgeStyle=orthogonalEdgeStyle;rounded=0;orthogonalLoop=1;jettySize=auto;html=1;strokeColor=#666666;dashed=1;dashPattern=8 8;" parent="1" edge="1">
          <mxGeometry relative="1" as="geometry">
            <mxPoint x="-236.75" y="99.59999999999991" as="sourcePoint" />
            <mxPoint x="-46.25" y="99.59999999999991" as="targetPoint" />
          </mxGeometry>
        </mxCell>
        <mxCell id="vVhtApy1v7BNJTEuhsdp-3" style="edgeStyle=orthogonalEdgeStyle;rounded=0;orthogonalLoop=1;jettySize=auto;html=1;entryX=0.5;entryY=0;entryDx=0;entryDy=0;strokeColor=#907A7A;" parent="1" source="vVhtApy1v7BNJTEuhsdp-1" target="Icxdzn66Q8KbmpTiYQE2-58" edge="1">
          <mxGeometry relative="1" as="geometry">
            <Array as="points">
              <mxPoint x="540" y="640" />
              <mxPoint x="400" y="640" />
            </Array>
          </mxGeometry>
        </mxCell>
        <mxCell id="vVhtApy1v7BNJTEuhsdp-4" style="edgeStyle=orthogonalEdgeStyle;rounded=0;orthogonalLoop=1;jettySize=auto;html=1;entryX=0.5;entryY=0;entryDx=0;entryDy=0;strokeColor=#907A7A;" parent="1" source="vVhtApy1v7BNJTEuhsdp-1" target="Icxdzn66Q8KbmpTiYQE2-59" edge="1">
          <mxGeometry relative="1" as="geometry">
            <Array as="points">
              <mxPoint x="540" y="640" />
              <mxPoint x="680" y="640" />
            </Array>
          </mxGeometry>
        </mxCell>
        <mxCell id="vVhtApy1v7BNJTEuhsdp-6" style="edgeStyle=orthogonalEdgeStyle;rounded=0;orthogonalLoop=1;jettySize=auto;html=1;strokeColor=#907A7A;" parent="1" source="vVhtApy1v7BNJTEuhsdp-1" target="vVhtApy1v7BNJTEuhsdp-5" edge="1">
          <mxGeometry relative="1" as="geometry">
            <Array as="points">
              <mxPoint x="650" y="560" />
              <mxPoint x="650" y="560" />
            </Array>
          </mxGeometry>
        </mxCell>
        <mxCell id="vVhtApy1v7BNJTEuhsdp-1" value="mongos router" style="rounded=1;whiteSpace=wrap;html=1;" parent="1" vertex="1">
          <mxGeometry x="480" y="510" width="120" height="60" as="geometry" />
        </mxCell>
        <mxCell id="vVhtApy1v7BNJTEuhsdp-5" value="mongdb" style="shape=cylinder3;whiteSpace=wrap;html=1;boundedLbl=1;backgroundOutline=1;size=15;" parent="1" vertex="1">
          <mxGeometry x="780" y="520" width="60" height="80" as="geometry" />
        </mxCell>
        <mxCell id="vVhtApy1v7BNJTEuhsdp-10" value="mongdb" style="shape=cylinder3;whiteSpace=wrap;html=1;boundedLbl=1;backgroundOutline=1;size=15;" parent="1" vertex="1">
          <mxGeometry x="810" y="490" width="60" height="80" as="geometry" />
        </mxCell>
        <mxCell id="vVhtApy1v7BNJTEuhsdp-11" value="mongdb" style="shape=cylinder3;whiteSpace=wrap;html=1;boundedLbl=1;backgroundOutline=1;size=15;" parent="1" vertex="1">
          <mxGeometry x="850" y="520" width="60" height="80" as="geometry" />
        </mxCell>
        <mxCell id="vVhtApy1v7BNJTEuhsdp-13" value="Config Server" style="text;html=1;align=center;verticalAlign=middle;whiteSpace=wrap;rounded=0;" parent="1" vertex="1">
          <mxGeometry x="795" y="600" width="90" height="30" as="geometry" />
        </mxCell>
      </root>
    </mxGraphModel>
  </diagram>
</mxfile>
